<svg width="202" height="200" viewBox="0 0 202 200" fill="none" xmlns="http://www.w3.org/2000/svg">
<path d="M148.108 138.583C148.108 140.157 148.733 141.666 149.846 142.779C150.959 143.892 152.468 144.517 154.042 144.517C155.615 144.517 157.124 143.892 158.237 142.779C159.35 141.666 159.975 140.157 159.975 138.583C159.975 137.01 159.35 135.501 158.237 134.388C157.124 133.275 155.615 132.65 154.042 132.65C152.468 132.65 150.959 133.275 149.846 134.388C148.733 135.501 148.108 137.01 148.108 138.583ZM69.3582 173.9H132.483C134.983 173.9 136.85 172.025 137.017 169.533V126.408C136.85 124.058 134.825 122.033 132.483 122.183H69.3582C68.1803 122.174 67.0458 122.627 66.1982 123.445C65.3506 124.263 64.8575 125.381 64.8248 126.558V169.525C64.8248 172.033 66.8582 173.9 69.3582 173.9ZM178.117 144.525C179.728 144.525 181.275 143.885 182.415 142.746C183.556 141.607 184.198 140.062 184.2 138.45C184.201 137.247 183.846 136.07 183.179 135.068C182.511 134.067 181.562 133.286 180.45 132.824C179.339 132.362 178.115 132.241 176.935 132.474C175.754 132.708 174.669 133.287 173.818 134.137C172.966 134.988 172.386 136.072 172.151 137.252C171.915 138.432 172.035 139.656 172.495 140.768C172.956 141.88 173.735 142.83 174.736 143.499C175.736 144.168 176.913 144.525 178.117 144.525ZM166.092 144.367C165.292 144.337 164.495 144.47 163.747 144.755C163 145.041 162.318 145.475 161.742 146.03C161.166 146.586 160.708 147.252 160.396 147.988C160.083 148.725 159.923 149.517 159.923 150.317C159.924 151.117 160.086 151.909 160.399 152.645C160.713 153.381 161.172 154.046 161.748 154.601C162.325 155.156 163.007 155.588 163.755 155.873C164.503 156.158 165.3 156.289 166.1 156.258C167.638 156.2 169.094 155.547 170.161 154.438C171.228 153.328 171.824 151.848 171.823 150.309C171.822 148.769 171.224 147.29 170.155 146.182C169.087 145.074 167.63 144.423 166.092 144.367ZM160.15 126.558C160.15 128.132 160.775 129.641 161.888 130.754C163 131.867 164.51 132.492 166.083 132.492C167.657 132.492 169.166 131.867 170.279 130.754C171.391 129.641 172.016 128.132 172.016 126.558C172.016 124.985 171.391 123.476 170.279 122.363C169.166 121.25 167.657 120.625 166.083 120.625C164.51 120.625 163 121.25 161.888 122.363C160.775 123.476 160.15 124.985 160.15 126.558ZM22.1665 138.433C22.1665 142.08 23.6152 145.578 26.1938 148.156C28.7724 150.735 32.2698 152.183 35.9165 152.183C39.5632 152.183 43.0606 150.735 45.6392 148.156C48.2178 145.578 49.6665 142.08 49.6665 138.433C49.6665 134.787 48.2178 131.289 45.6392 128.711C43.0606 126.132 39.5632 124.683 35.9165 124.683C32.2698 124.683 28.7724 126.132 26.1938 128.711C23.6152 131.289 22.1665 134.787 22.1665 138.433ZM178.266 9.8266e-05H23.7332C17.7024 -0.0176149 11.9113 2.36 7.63281 6.61036C3.35433 10.8607 0.938569 16.636 0.916504 22.6668V177.183C1.07484 189.842 11.2332 200 23.7332 200H178.117C184.157 200.007 189.956 197.632 194.255 193.39C198.555 189.148 201.009 183.381 201.083 177.342V22.8084C200.925 10.1584 190.766 9.8266e-05 178.266 9.8266e-05ZM194.208 177.342C194.191 181.562 192.506 185.605 189.522 188.589C186.538 191.573 182.495 193.258 178.275 193.275H23.7332C19.5113 193.26 15.4667 191.576 12.4806 188.592C9.49453 185.607 7.80907 181.564 7.7915 177.342V106.875H194.2L194.208 177.342ZM194.208 96.5584H7.7915V22.8084C7.80687 18.5852 9.49137 14.5393 12.4777 11.5529C15.464 8.56663 19.5099 6.88213 23.7332 6.86676H178.266C187.008 6.86676 194.2 14.0584 194.2 22.8084L194.208 96.5584ZM146.083 25.9334H55.4498C52.9498 25.9334 50.9165 28.1251 50.9165 30.6251V76.2501C50.9165 78.7501 52.7998 80.9418 55.4498 80.9418H146.075C146.682 80.9353 147.281 80.8084 147.839 80.5684C148.396 80.3283 148.9 79.98 149.322 79.5435C149.744 79.107 150.075 78.5911 150.296 78.0258C150.516 77.4604 150.623 76.8569 150.608 76.2501V30.4668C150.609 29.8711 150.493 29.2811 150.265 28.7306C150.038 28.1801 149.704 27.6799 149.283 27.2588C148.862 26.8376 148.361 26.5037 147.811 26.2763C147.26 26.0488 146.679 25.9323 146.083 25.9334Z" fill="white"/>
</svg>
