<svg width="177" height="176" viewBox="0 0 177 176" fill="none" xmlns="http://www.w3.org/2000/svg">
<path d="M80 59.1667L70 63.3334L7.93333 91.5501C7.0592 91.9469 6.31777 92.5869 5.79761 93.3937C5.27745 94.2006 5.00056 95.1401 5 96.1001V97.2334C5.00056 98.1934 5.27745 99.1329 5.79761 99.9397C6.31777 100.747 7.0592 101.387 7.93333 101.783L81.4333 135.2C83.6002 136.186 85.9529 136.695 88.3333 136.695C90.7137 136.695 93.0665 136.186 95.2333 135.2L168.733 101.783C169.607 101.387 170.349 100.747 170.869 99.9397C171.389 99.1329 171.666 98.1934 171.667 97.2334V96.1001C171.666 95.1401 171.389 94.2006 170.869 93.3937C170.349 92.5869 169.607 91.9469 168.733 91.5501L106.667 63.3334L96.6667 59.1667" stroke="white" stroke-width="10"/>
<path d="M171.667 96.6667V130.933C171.666 131.897 171.388 132.839 170.864 133.648C170.341 134.457 169.595 135.097 168.717 135.492L95.175 168.592C93.0241 169.56 90.6921 170.061 88.3333 170.061C85.9745 170.061 83.6426 169.56 81.4917 168.592L7.95 135.492C7.07146 135.097 6.32569 134.457 5.80235 133.648C5.27902 132.839 5.0004 131.897 5 130.933V96.6667" stroke="white" stroke-width="10"/>
<path d="M88.3335 55C81.7031 55 75.3442 52.3661 70.6558 47.6777C65.9674 42.9893 63.3335 36.6304 63.3335 30C63.3335 23.3696 65.9674 17.0107 70.6558 12.3223C75.3442 7.63392 81.7031 5 88.3335 5C94.9639 5 101.323 7.63392 106.011 12.3223C110.7 17.0107 113.333 23.3696 113.333 30C113.333 36.6304 110.7 42.9893 106.011 47.6777C101.323 52.3661 94.9639 55 88.3335 55Z" stroke="white" stroke-width="10" stroke-linecap="round" stroke-linejoin="round"/>
<path d="M80 55V96.6667C80 98.8768 80.878 100.996 82.4408 102.559C84.0036 104.122 86.1232 105 88.3333 105C90.5435 105 92.6631 104.122 94.2259 102.559C95.7887 100.996 96.6667 98.8768 96.6667 96.6667V55" stroke="white" stroke-width="10"/>
<path d="M121.667 96.6667H130" stroke="white" stroke-width="10" stroke-linecap="round" stroke-linejoin="round"/>
</svg>
