<svg width="200" height="200" viewBox="0 0 200 200" fill="none" xmlns="http://www.w3.org/2000/svg">
<path d="M100 175C79.0278 175 61.2861 171.772 46.775 165.317C32.2639 158.861 25.0056 150.978 25 141.667V58.3333C25 49.1667 32.3278 41.3194 46.9833 34.7917C61.6389 28.2639 79.3111 25 100 25C120.689 25 138.364 28.2639 153.025 34.7917C167.686 41.3194 175.011 49.1667 175 58.3333V141.667C175 150.972 167.742 158.856 153.225 165.317C138.708 171.778 120.967 175.006 100 175ZM100 75.2083C112.361 75.2083 124.792 73.4361 137.292 69.8917C149.792 66.3472 156.806 62.5639 158.333 58.5417C156.806 54.5139 149.828 50.6944 137.4 47.0833C124.972 43.4722 112.506 41.6667 100 41.6667C87.3611 41.6667 74.9667 43.4389 62.8167 46.9833C50.6667 50.5278 43.6167 54.3806 41.6667 58.5417C43.6111 62.7083 50.6611 66.5278 62.8167 70C74.9722 73.4722 87.3667 75.2083 100 75.2083ZM100 116.667C105.833 116.667 111.458 116.389 116.875 115.833C122.292 115.278 127.467 114.478 132.4 113.433C137.333 112.389 141.986 111.106 146.358 109.583C150.731 108.061 154.722 106.325 158.333 104.375V79.375C154.722 81.3194 150.731 83.0555 146.358 84.5833C141.986 86.1111 137.333 87.3972 132.4 88.4417C127.467 89.4861 122.292 90.2833 116.875 90.8333C111.458 91.3833 105.833 91.6611 100 91.6667C94.1667 91.6722 88.4722 91.3944 82.9167 90.8333C77.3611 90.2722 72.1167 89.4722 67.1833 88.4333C62.25 87.3944 57.6333 86.1111 53.3333 84.5833C49.0333 83.0555 45.1444 81.3194 41.6667 79.375V104.375C45.1389 106.319 49.0278 108.056 53.3333 109.583C57.6389 111.111 62.2583 112.397 67.1917 113.442C72.125 114.486 77.3667 115.283 82.9167 115.833C88.4667 116.383 94.1611 116.661 100 116.667ZM100 158.333C106.389 158.333 112.883 157.847 119.483 156.875C126.083 155.903 132.158 154.619 137.708 153.025C143.258 151.431 147.911 149.625 151.667 147.608C155.422 145.592 157.644 143.542 158.333 141.458V121.042C154.722 122.986 150.731 124.722 146.358 126.25C141.986 127.778 137.333 129.064 132.4 130.108C127.467 131.153 122.292 131.95 116.875 132.5C111.458 133.05 105.833 133.328 100 133.333C94.1667 133.339 88.4722 133.061 82.9167 132.5C77.3611 131.939 72.1167 131.139 67.1833 130.1C62.25 129.061 57.6333 127.778 53.3333 126.25C49.0333 124.722 45.1444 122.986 41.6667 121.042V141.667C42.3611 143.75 44.55 145.764 48.2333 147.708C51.9167 149.653 56.5333 151.425 62.0833 153.025C67.6333 154.625 73.7444 155.908 80.4167 156.875C87.0889 157.842 93.6167 158.328 100 158.333Z" fill="white"/>
</svg>
