<svg width="200" height="200" viewBox="0 0 200 200" fill="none" xmlns="http://www.w3.org/2000/svg">
<path d="M117.338 123.125C119.278 127.054 122.287 130.357 126.019 132.654C129.751 134.951 134.055 136.15 138.438 136.112C147.3 136.112 152.963 131.681 152.963 125.562C152.963 118.231 147.144 115.631 137.394 111.362L132.044 109.069C116.613 102.494 106.356 94.2562 106.356 76.8437C106.356 60.7999 118.581 48.5937 137.681 48.5937C143.88 48.1455 150.074 49.5338 155.488 52.585C160.902 55.6363 165.298 60.2153 168.125 65.7499L151.469 76.4437C150.376 73.7021 148.476 71.3572 146.02 69.7199C143.565 68.0825 140.67 67.2298 137.719 67.2749C136.432 67.1465 135.133 67.2872 133.904 67.6882C132.675 68.0893 131.543 68.7418 130.58 69.6043C129.617 70.4667 128.844 71.5203 128.311 72.6978C127.777 73.8753 127.495 75.151 127.481 76.4437C127.481 82.8624 131.456 85.4562 140.606 89.4312L145.956 91.7187C164.131 99.5124 174.388 107.456 174.388 125.319C174.388 144.575 159.263 155.125 138.944 155.125C131.03 155.624 123.14 153.825 116.225 149.944C109.31 146.063 103.665 140.266 99.9688 133.25L117.338 123.125ZM41.7875 125C45.15 130.962 48.2062 136 55.5375 136C62.5625 136 67 133.25 67 122.562V49.8437H88.3875V122.862C88.3875 145.006 75.4 155.087 56.45 155.087C49.7559 155.452 43.1084 153.78 37.383 150.292C31.6575 146.805 27.1225 141.665 24.375 135.55L41.7875 125Z" fill="#F5DE19"/>
</svg>
