<svg width="200" height="200" viewBox="0 0 200 200" fill="none" xmlns="http://www.w3.org/2000/svg">
<path d="M147.2 147.083L85.4998 66.6667H66.6665V133.333H83.3332V91.2167L134.058 157.325C119.485 165.996 102.154 168.787 85.595 165.131C69.0358 161.474 54.4925 151.644 44.9255 137.643C35.3585 123.641 31.487 106.519 34.0991 89.7637C36.7112 73.0079 45.6105 57.8774 58.9854 47.452C72.3604 37.0267 89.2056 32.0902 106.092 33.6474C122.979 35.2047 138.637 43.1386 149.88 55.8342C161.122 68.5298 167.105 85.0327 166.608 101.984C166.112 118.934 159.175 135.059 147.208 147.075M99.9998 183.333C146.025 183.333 183.333 146.025 183.333 100C183.333 53.9751 146.025 16.6667 99.9998 16.6667C53.9748 16.6667 16.6665 53.9751 16.6665 100C16.6665 146.025 53.9748 183.333 99.9998 183.333ZM116.667 100V66.6667H133.333V100H116.667Z" fill="#18DBB1"/>
</svg>
