<svg width="354" height="354" viewBox="0 0 354 354" fill="none" xmlns="http://www.w3.org/2000/svg">
<path d="M176.667 26L235 60.0333V105.042C243.583 108.808 251.058 113.525 256.75 119.1C263.65 125.85 268.333 134.308 268.333 143.983C268.333 160.342 255.283 172.917 239.317 180.9C222.85 189.133 200.692 193.983 176.667 193.983C152.642 193.983 130.475 189.133 114.017 180.9C98.05 172.917 85 160.35 85 143.983C85 134.308 89.6833 125.858 96.5833 119.1C102.275 113.517 109.75 108.808 118.333 105.042V60.0333L176.667 26ZM118.333 123.65C114.662 125.658 111.267 128.134 108.233 131.017C103.533 135.617 101.667 140.025 101.667 143.983C101.667 150.633 107.275 158.9 121.467 165.992C135.167 172.842 154.667 177.317 176.667 177.317C198.667 177.317 218.167 172.842 231.867 165.992C246.058 158.9 251.667 150.633 251.667 143.983C251.667 140.025 249.8 135.617 245.1 131.008C242.066 128.129 238.671 125.655 235 123.65V127.942L176.667 161.975L118.333 127.942V123.65ZM218.333 118.375V80.3583L185 98.8833V137.808L218.333 118.375ZM168.333 137.817V98.9L135 80.35V118.35L168.333 137.817ZM142.3 65.3417L176.667 84.45L211.033 65.3417L176.667 45.3L142.3 65.3417Z" fill="white"/>
<path d="M33.1875 0C24.3856 0 15.9443 3.49653 9.72039 9.72039C3.49653 15.9443 0 24.3856 0 33.1875L0 188.062C0 196.864 3.49653 205.306 9.72039 211.53C15.9443 217.753 24.3856 221.25 33.1875 221.25H132.75V243.375H22.125C16.2571 243.375 10.6295 245.706 6.48026 249.855C2.33102 254.004 0 259.632 0 265.5L0 331.875C0 337.743 2.33102 343.37 6.48026 347.52C10.6295 351.669 16.2571 354 22.125 354H331.875C337.743 354 343.37 351.669 347.52 347.52C351.669 343.37 354 337.743 354 331.875V265.5C354 259.632 351.669 254.004 347.52 249.855C343.37 245.706 337.743 243.375 331.875 243.375H221.25V221.25H320.812C329.614 221.25 338.056 217.753 344.28 211.53C350.503 205.306 354 196.864 354 188.062V33.1875C354 24.3856 350.503 15.9443 344.28 9.72039C338.056 3.49653 329.614 0 320.812 0L33.1875 0ZM33.1875 22.125H320.812C323.746 22.125 326.56 23.2905 328.635 25.3651C330.709 27.4398 331.875 30.2535 331.875 33.1875V188.062C331.875 190.996 330.709 193.81 328.635 195.885C326.56 197.959 323.746 199.125 320.812 199.125H33.1875C30.2535 199.125 27.4398 197.959 25.3651 195.885C23.2905 193.81 22.125 190.996 22.125 188.062V33.1875C22.125 30.2535 23.2905 27.4398 25.3651 25.3651C27.4398 23.2905 30.2535 22.125 33.1875 22.125ZM265.5 276.562C265.5 273.629 266.666 270.815 268.74 268.74C270.815 266.666 273.629 265.5 276.562 265.5C279.496 265.5 282.31 266.666 284.385 268.74C286.459 270.815 287.625 273.629 287.625 276.562C287.625 279.496 286.459 282.31 284.385 284.385C282.31 286.459 279.496 287.625 276.562 287.625C273.629 287.625 270.815 286.459 268.74 284.385C266.666 282.31 265.5 279.496 265.5 276.562ZM309.75 276.562C309.75 273.629 310.916 270.815 312.99 268.74C315.065 266.666 317.879 265.5 320.812 265.5C323.746 265.5 326.56 266.666 328.635 268.74C330.709 270.815 331.875 273.629 331.875 276.562C331.875 279.496 330.709 282.31 328.635 284.385C326.56 286.459 323.746 287.625 320.812 287.625C317.879 287.625 315.065 286.459 312.99 284.385C310.916 282.31 309.75 279.496 309.75 276.562ZM33.1875 265.5H143.812C146.746 265.5 149.56 266.666 151.635 268.74C153.709 270.815 154.875 273.629 154.875 276.562C154.875 279.496 153.709 282.31 151.635 284.385C149.56 286.459 146.746 287.625 143.812 287.625H33.1875C30.2535 287.625 27.4398 286.459 25.3651 284.385C23.2905 282.31 22.125 279.496 22.125 276.562C22.125 273.629 23.2905 270.815 25.3651 268.74C27.4398 266.666 30.2535 265.5 33.1875 265.5ZM22.125 315.281C22.125 313.814 22.7078 312.407 23.7451 311.37C24.7824 310.333 26.1893 309.75 27.6562 309.75H149.344C150.811 309.75 152.218 310.333 153.255 311.37C154.292 312.407 154.875 313.814 154.875 315.281C154.875 316.748 154.292 318.155 153.255 319.192C152.218 320.23 150.811 320.812 149.344 320.812H27.6562C26.1893 320.812 24.7824 320.23 23.7451 319.192C22.7078 318.155 22.125 316.748 22.125 315.281Z" fill="white"/>
</svg>
