<svg width="162" height="162" viewBox="0 0 162 162" fill="none" xmlns="http://www.w3.org/2000/svg">
<path d="M86.9831 153.608C73.4236 157.442 58.9754 156.669 45.9023 151.411C32.8292 146.152 21.87 136.705 14.7418 124.55C7.6136 112.395 4.71924 98.2187 6.51223 84.2422C8.30522 70.2657 14.6842 57.2789 24.6498 47.3167L30.6498 41.3167C40.4216 31.539 53.1104 25.2074 66.7988 23.2785C80.4872 21.3496 94.4315 23.9284 106.525 30.625L126.416 11.0834C129.584 7.94395 133.84 6.14646 138.3 6.06468C142.759 5.98291 147.078 7.62314 150.359 10.6443C153.64 13.6654 155.63 17.835 155.915 22.2858C156.201 26.7366 154.76 31.1262 151.891 34.5417L150.925 35.5917L131.375 55.4834C137.841 67.1606 140.474 80.575 138.901 93.8301C137.328 107.085 131.628 119.511 122.608 129.35" stroke="white" stroke-width="12" stroke-linecap="round" stroke-linejoin="round"/>
<path d="M58.5 25.1667L136.833 103.5M72.6667 131C72.6667 134.283 73.3133 137.534 74.5697 140.567C75.826 143.6 77.6675 146.356 79.989 148.678C82.3105 150.999 85.0664 152.841 88.0996 154.097C91.1327 155.353 94.3836 156 97.6667 156C100.95 156 104.201 155.353 107.234 154.097C110.267 152.841 113.023 150.999 115.344 148.678C117.666 146.356 119.507 143.6 120.764 140.567C122.02 137.534 122.667 134.283 122.667 131C122.667 127.717 122.02 124.466 120.764 121.433C119.507 118.4 117.666 115.644 115.344 113.322C113.023 111.001 110.267 109.159 107.234 107.903C104.201 106.647 100.95 106 97.6667 106C94.3836 106 91.1327 106.647 88.0996 107.903C85.0664 109.159 82.3105 111.001 79.989 113.322C77.6675 115.644 75.826 118.4 74.5697 121.433C73.3133 124.466 72.6667 127.717 72.6667 131Z" stroke="white" stroke-width="12" stroke-linecap="round" stroke-linejoin="round"/>
</svg>
