<svg width="200" height="200" viewBox="0 0 200 200" fill="none" xmlns="http://www.w3.org/2000/svg">
<mask id="mask0_277_534" style="mask-type:luminance" maskUnits="userSpaceOnUse" x="10" y="35" width="180" height="138">
<path d="M20.8332 66.6667H179.166C180.272 66.6667 181.331 67.1057 182.113 67.8871C182.894 68.6685 183.333 69.7283 183.333 70.8334V162.5C183.333 163.605 182.894 164.665 182.113 165.446C181.331 166.228 180.272 166.667 179.166 166.667H125L100.033 141.671L74.9998 166.667H20.8332C19.7281 166.667 18.6683 166.228 17.8869 165.446C17.1055 164.665 16.6665 163.605 16.6665 162.5V70.8334C16.6665 69.7283 17.1055 68.6685 17.8869 67.8871C18.6683 67.1057 19.7281 66.6667 20.8332 66.6667Z" fill="white" stroke="white" stroke-width="12" stroke-linejoin="round"/>
<path d="M58.3332 133.333C62.7534 133.333 66.9927 131.577 70.1183 128.452C73.2439 125.326 74.9998 121.087 74.9998 116.667C74.9998 112.246 73.2439 108.007 70.1183 104.882C66.9927 101.756 62.7534 100 58.3332 100C53.9129 100 49.6737 101.756 46.5481 104.882C43.4225 108.007 41.6665 112.246 41.6665 116.667C41.6665 121.087 43.4225 125.326 46.5481 128.452C49.6737 131.577 53.9129 133.333 58.3332 133.333ZM141.667 133.333C146.087 133.333 150.326 131.577 153.452 128.452C156.577 125.326 158.333 121.087 158.333 116.667C158.333 112.246 156.577 108.007 153.452 104.882C150.326 101.756 146.087 100 141.667 100C137.246 100 133.007 101.756 129.881 104.882C126.756 108.007 125 112.246 125 116.667C125 121.087 126.756 125.326 129.881 128.452C133.007 131.577 137.246 133.333 141.667 133.333Z" fill="black" stroke="black" stroke-width="12" stroke-linecap="round" stroke-linejoin="round"/>
<path d="M25 41.6667H175" stroke="white" stroke-width="12" stroke-linecap="round" stroke-linejoin="round"/>
</mask>
<g mask="url(#mask0_277_534)">
<path d="M0 0H200V200H0V0Z" fill="white"/>
</g>
</svg>
