<svg width="363" height="164" viewBox="0 0 363 164" fill="none" xmlns="http://www.w3.org/2000/svg">
<path d="M21.25 101.125H29.75C30.8715 101.125 31.8313 100.727 32.6294 99.9315C33.4274 99.1358 33.8253 98.176 33.8229 97.0521V83.9479C33.8229 82.8264 33.4251 81.8678 32.6294 81.0721C31.8337 80.2764 30.8739 79.8774 29.75 79.875H21.25V101.125ZM25.3229 97.0521V83.9479H29.75V97.0521H25.3229ZM38.5156 101.125H47.1927V97.0521H39.9323V92.4479H44.5365V88.375H39.9323V83.9479H47.1927V79.875H38.5156C37.7483 79.875 37.1143 80.1253 36.6137 80.6258C36.1132 81.1264 35.8617 81.7615 35.8594 82.5312V98.4687C35.8594 99.2361 36.1108 99.8712 36.6137 100.374C37.1167 100.877 37.7506 101.127 38.5156 101.125ZM56.7552 101.036C57.5226 101.036 58.1872 100.785 58.7492 100.282C59.3111 99.7792 59.6794 99.1452 59.8542 98.3802L64.8125 79.875H60.5625L56.7552 94.3958L52.9479 79.875H48.6979L53.6562 98.3802C53.8333 99.1476 54.2028 99.7827 54.7648 100.286C55.3267 100.789 55.9902 101.039 56.7552 101.036ZM17.7083 122.375C15.7604 122.375 14.0935 121.682 12.7075 120.296C11.3215 118.91 10.6274 117.242 10.625 115.292V65.7083C10.625 63.7604 11.3192 62.0935 12.7075 60.7075C14.0958 59.3215 15.7628 58.6274 17.7083 58.625H67.2917C69.2396 58.625 70.9077 59.3192 72.296 60.7075C73.6844 62.0958 74.3774 63.7628 74.375 65.7083V115.292C74.375 117.24 73.682 118.908 72.296 120.296C70.9101 121.684 69.2419 122.377 67.2917 122.375H17.7083ZM17.7083 115.292H67.2917V65.7083H17.7083V115.292Z" fill="white"/>
<path d="M245.375 98.375H326.625M254.75 79.625H317.25C322.437 79.625 326.625 83.8125 326.625 89V145.25C326.625 150.437 322.437 154.625 317.25 154.625H254.75C252.264 154.625 249.879 153.637 248.121 151.879C246.363 150.121 245.375 147.736 245.375 145.25V89C245.375 83.8125 249.563 79.625 254.75 79.625Z" stroke="#CAD3F5" stroke-width="5" stroke-linecap="round" stroke-linejoin="round"/>
<path d="M276.625 114L264.125 126.5L276.625 139M295.375 114L307.875 126.5L295.375 139" stroke="#CAD3F5" stroke-width="5" stroke-linecap="round" stroke-linejoin="round"/>
<path d="M138.875 89.375H195.125C196.783 89.375 198.372 90.0335 199.544 91.2056C200.717 92.3777 201.375 93.9674 201.375 95.625V139.375C201.375 141.033 200.717 142.622 199.544 143.794C198.372 144.967 196.783 145.625 195.125 145.625H138.875C137.217 145.625 135.628 144.967 134.456 143.794C133.283 142.622 132.625 141.033 132.625 139.375V95.625C132.625 93.9674 133.283 92.3777 134.456 91.2056C135.628 90.0335 137.217 89.375 138.875 89.375Z" stroke="#C6A0F6" stroke-width="5" stroke-linecap="round" stroke-linejoin="round"/>
<path d="M167 89.375V76.875M167 76.875C168.658 76.875 170.247 76.2165 171.419 75.0444C172.592 73.8723 173.25 72.2826 173.25 70.625C173.25 68.9674 172.592 67.3777 171.419 66.2056C170.247 65.0335 168.658 64.375 167 64.375C165.342 64.375 163.753 65.0335 162.581 66.2056C161.408 67.3777 160.75 68.9674 160.75 70.625C160.75 72.2826 161.408 73.8723 162.581 75.0444C163.753 76.2165 165.342 76.875 167 76.875ZM120.125 108.125V126.875M213.875 108.125V126.875M157.625 133.125H176.375M157.625 111.25C157.625 112.079 157.296 112.874 156.71 113.46C156.124 114.046 155.329 114.375 154.5 114.375C153.671 114.375 152.876 114.046 152.29 113.46C151.704 112.874 151.375 112.079 151.375 111.25C151.375 110.421 151.704 109.626 152.29 109.04C152.876 108.454 153.671 108.125 154.5 108.125C155.329 108.125 156.124 108.454 156.71 109.04C157.296 109.626 157.625 110.421 157.625 111.25ZM182.625 111.25C182.625 112.079 182.296 112.874 181.71 113.46C181.124 114.046 180.329 114.375 179.5 114.375C178.671 114.375 177.876 114.046 177.29 113.46C176.704 112.874 176.375 112.079 176.375 111.25C176.375 110.421 176.704 109.626 177.29 109.04C177.876 108.454 178.671 108.125 179.5 108.125C180.329 108.125 181.124 108.454 181.71 109.04C182.296 109.626 182.625 110.421 182.625 111.25Z" stroke="#C6A0F6" stroke-width="5" stroke-linecap="round" stroke-linejoin="round"/>
<path d="M192 50.2V69.5333M242 50.2V69.5333M199.692 46.3333H234.308M199.692 46.3333V71.4667C199.692 73.0049 200.3 74.4802 201.382 75.5679C202.464 76.6556 203.931 77.2667 205.462 77.2667H228.538C231.731 77.2667 234.308 74.676 234.308 71.4667V46.3333M199.692 46.3333C199.692 36.7053 207.423 30.8667 217 30.8667C226.577 30.8667 234.308 36.7053 234.308 46.3333M203.538 27L207.385 32.8M230.462 27L226.615 32.8M207.385 77.2667V85M226.615 77.2667V85" stroke="#A6DA95" stroke-width="5" stroke-linecap="round" stroke-linejoin="round"/>
<path d="M87.9545 89.5682V86.0455C91.1174 86.0455 93.3239 85.3826 94.5739 84.0568C95.8428 82.7311 96.4773 80.5152 96.4773 77.4091V68.3182C96.4773 65.7045 96.7235 63.4413 97.2159 61.5284C97.7273 59.6155 98.5511 58.0341 99.6875 56.7841C100.824 55.5341 102.339 54.6061 104.233 54C106.127 53.3939 108.466 53.0909 111.25 53.0909V58.6591C109.053 58.6591 107.32 59 106.051 59.6818C104.801 60.3636 103.911 61.4242 103.381 62.8636C102.869 64.2841 102.614 66.1023 102.614 68.3182V79.6818C102.614 81.1591 102.415 82.5038 102.017 83.7159C101.638 84.928 100.928 85.9697 99.8864 86.8409C98.8447 87.7121 97.358 88.3845 95.4261 88.858C93.5133 89.3314 91.0227 89.5682 87.9545 89.5682ZM111.25 125.818C108.466 125.818 106.127 125.515 104.233 124.909C102.339 124.303 100.824 123.375 99.6875 122.125C98.5511 120.875 97.7273 119.294 97.2159 117.381C96.7235 115.468 96.4773 113.205 96.4773 110.591V101.5C96.4773 98.3939 95.8428 96.178 94.5739 94.8523C93.3239 93.5265 91.1174 92.8636 87.9545 92.8636V89.3409C91.0227 89.3409 93.5133 89.5777 95.4261 90.0511C97.358 90.5246 98.8447 91.197 99.8864 92.0682C100.928 92.9394 101.638 93.9811 102.017 95.1932C102.415 96.4053 102.614 97.75 102.614 99.2273V110.591C102.614 112.807 102.869 114.625 103.381 116.045C103.911 117.466 104.801 118.517 106.051 119.199C107.32 119.9 109.053 120.25 111.25 120.25V125.818ZM87.9545 92.8636V86.0455H94.6591V92.8636H87.9545Z" fill="white"/>
<path d="M362.023 89.3409V92.8636C358.86 92.8636 356.644 93.5265 355.375 94.8523C354.125 96.178 353.5 98.3939 353.5 101.5V110.591C353.5 113.205 353.244 115.468 352.733 117.381C352.241 119.294 351.426 120.875 350.29 122.125C349.153 123.375 347.638 124.303 345.744 124.909C343.85 125.515 341.511 125.818 338.727 125.818V120.25C340.924 120.25 342.648 119.9 343.898 119.199C345.167 118.517 346.057 117.466 346.568 116.045C347.098 114.625 347.364 112.807 347.364 110.591V99.2273C347.364 97.75 347.553 96.4053 347.932 95.1932C348.33 93.9811 349.049 92.9394 350.091 92.0682C351.133 91.197 352.61 90.5246 354.523 90.0511C356.455 89.5777 358.955 89.3409 362.023 89.3409ZM338.727 53.0909C341.511 53.0909 343.85 53.3939 345.744 54C347.638 54.6061 349.153 55.5341 350.29 56.7841C351.426 58.0341 352.241 59.6155 352.733 61.5284C353.244 63.4413 353.5 65.7045 353.5 68.3182V77.4091C353.5 80.5152 354.125 82.7311 355.375 84.0568C356.644 85.3826 358.86 86.0455 362.023 86.0455V89.5682C358.955 89.5682 356.455 89.3314 354.523 88.858C352.61 88.3845 351.133 87.7121 350.091 86.8409C349.049 85.9697 348.33 84.928 347.932 83.7159C347.553 82.5038 347.364 81.1591 347.364 79.6818V68.3182C347.364 66.1023 347.098 64.2841 346.568 62.8636C346.057 61.4242 345.167 60.3636 343.898 59.6818C342.648 59 340.924 58.6591 338.727 58.6591V53.0909ZM362.023 86.0455V92.8636H355.318V86.0455H362.023Z" fill="white"/>
<path d="M314.958 34.968C313.481 37.1024 314.869 38.9653 316.261 41.0903C317.705 43.2956 316.926 46.1703 314.771 48.0745C314.585 48.1917 314.425 48.3461 314.302 48.5279C314.178 48.7097 314.093 48.915 314.053 49.1311C314.012 49.3472 314.016 49.5693 314.065 49.7836C314.114 49.9979 314.207 50.1998 314.338 50.3766C315.804 53.4744 314.759 56.4718 311.835 58.3312C311.24 58.7261 310.78 59.2933 310.516 59.9568C310.119 61.2561 309.278 62.3749 308.141 63.1184C307.003 63.862 305.641 64.1832 304.291 64.0262C303.974 64.0402 303.664 64.1214 303.381 64.2642C303.098 64.4071 302.848 64.6084 302.648 64.8549C300.969 67.1771 298.778 67.6351 296.379 65.9387C296.132 65.7016 295.803 65.57 295.461 65.5717C295.118 65.5735 294.79 65.7085 294.546 65.9481C292.232 67.621 289.954 67.1369 288.262 64.836C288.058 64.5906 287.804 64.3909 287.518 64.2498C287.231 64.1086 286.919 64.0292 286.6 64.0167C285.278 64.1905 283.937 63.8845 282.822 63.1543C281.706 62.4241 280.889 61.3181 280.52 60.0371C280.261 59.3614 279.799 58.7824 279.197 58.3796C276.068 56.4293 275.054 53.341 276.74 50.0413C277.217 49.1087 276.945 48.7439 276.302 48.1808C275.603 47.6443 275.034 46.9578 274.636 46.1719C274.239 45.386 274.023 44.5208 274.004 43.6402C273.986 42.7596 274.166 41.8862 274.53 41.0843C274.895 40.2825 275.435 39.5729 276.11 39.0078C276.431 38.7816 276.654 38.4429 276.736 38.0593C276.817 37.6757 276.751 37.2754 276.551 36.9383C275.212 33.6375 276.191 30.9753 279.197 29.0404C279.825 28.592 280.298 27.9601 280.552 27.2318C280.928 26.0093 281.725 24.9594 282.801 24.2678C283.876 23.5762 285.162 23.2875 286.431 23.4528C286.816 23.55 287.222 23.51 287.581 23.3398C287.939 23.1696 288.227 22.8798 288.395 22.5202C288.677 22.0091 289.068 21.566 289.54 21.2224C290.012 20.8787 290.553 20.6428 291.126 20.5312C291.699 20.4196 292.29 20.4352 292.856 20.5767C293.423 20.7182 293.951 20.9823 294.404 21.3503C294.538 21.491 294.699 21.6034 294.878 21.6805C295.056 21.7577 295.249 21.7982 295.443 21.7995C295.637 21.8008 295.83 21.763 296.01 21.6882C296.189 21.6135 296.352 21.5034 296.488 21.3644C298.704 19.773 301.002 20.3137 302.641 22.5332C302.86 22.7937 303.131 23.005 303.437 23.1535C303.744 23.302 304.078 23.3843 304.418 23.395C305.77 23.2579 307.127 23.6047 308.247 24.3738C309.367 25.1429 310.179 26.2844 310.537 27.5954C310.862 28.2922 311.39 28.8748 312.051 29.2671C313.009 29.862 313.786 30.7074 314.299 31.712C314.811 32.7166 315.039 33.8421 314.958 34.9668" fill="#FFA7C0"/>
<path d="M295.5 21.7942V65.5739M314.958 34.968C313.481 37.1024 314.869 38.9653 316.261 41.0903C317.705 43.2956 316.926 46.1703 314.771 48.0745C314.585 48.1917 314.425 48.3461 314.302 48.5279C314.178 48.7097 314.093 48.915 314.053 49.1311C314.012 49.3472 314.016 49.5693 314.065 49.7836C314.114 49.9979 314.207 50.1998 314.338 50.3766C315.804 53.4744 314.759 56.4718 311.835 58.3312C311.24 58.7261 310.78 59.2933 310.516 59.9568C310.119 61.2561 309.278 62.3749 308.141 63.1184C307.003 63.862 305.641 64.1832 304.291 64.0262C303.974 64.0402 303.664 64.1214 303.381 64.2642C303.098 64.4071 302.848 64.6084 302.648 64.8549C300.969 67.1771 298.778 67.6351 296.379 65.9387C296.132 65.7016 295.803 65.57 295.461 65.5717C295.118 65.5735 294.79 65.7085 294.546 65.9481C292.232 67.621 289.954 67.1369 288.262 64.836C288.058 64.5906 287.804 64.3909 287.518 64.2498C287.231 64.1086 286.919 64.0292 286.6 64.0167C285.278 64.1905 283.937 63.8845 282.822 63.1543C281.706 62.4241 280.889 61.3181 280.52 60.0371C280.261 59.3614 279.799 58.7824 279.197 58.3796C276.068 56.4293 275.054 53.341 276.74 50.0413C277.217 49.1087 276.945 48.7439 276.302 48.1808C275.603 47.6443 275.034 46.9578 274.636 46.1719C274.239 45.386 274.023 44.5208 274.004 43.6402C273.986 42.7596 274.166 41.8862 274.53 41.0843C274.895 40.2825 275.435 39.5729 276.11 39.0078C276.431 38.7816 276.654 38.4429 276.736 38.0593C276.817 37.6757 276.751 37.2754 276.551 36.9383C275.212 33.6375 276.191 30.9753 279.197 29.0404C279.825 28.592 280.298 27.9601 280.552 27.2318C280.928 26.0093 281.725 24.9594 282.801 24.2678C283.876 23.5762 285.162 23.2875 286.431 23.4528C286.816 23.55 287.222 23.51 287.581 23.3398C287.939 23.1696 288.227 22.8798 288.395 22.5202C288.677 22.0091 289.068 21.566 289.54 21.2224C290.012 20.8787 290.553 20.6428 291.126 20.5312C291.699 20.4196 292.29 20.4352 292.856 20.5767C293.423 20.7182 293.951 20.9823 294.404 21.3503C294.538 21.491 294.699 21.6034 294.878 21.6805C295.056 21.7577 295.249 21.7982 295.443 21.7995C295.637 21.8008 295.83 21.763 296.01 21.6882C296.189 21.6135 296.352 21.5034 296.488 21.3644C298.704 19.773 301.002 20.3137 302.641 22.5332C302.86 22.7937 303.131 23.005 303.437 23.1535C303.744 23.302 304.078 23.3843 304.418 23.395C305.77 23.2579 307.127 23.6047 308.247 24.3738C309.367 25.1429 310.179 26.2844 310.537 27.5954C310.862 28.2922 311.39 28.8748 312.051 29.2671C313.009 29.862 313.786 30.7074 314.299 31.712C314.811 32.7166 315.039 33.8421 314.958 34.9668V34.968Z" stroke="black" stroke-width="2" stroke-miterlimit="10"/>
<path d="M289.213 35.4887C289.213 35.4887 293.845 30.8326 295.5 37.0848C297.155 30.8326 301.786 35.4887 301.786 35.4887M305.088 31.9659C305.088 31.9659 308.227 26.1965 301.763 26.3972M301.786 50.6458C301.786 50.6458 297.155 55.3043 295.5 49.0521C293.845 55.3031 289.213 50.6458 289.213 50.6458M302.952 43.0914C302.952 43.0914 307.627 38.4778 309.224 44.7442" stroke="black" stroke-width="2" stroke-linecap="round" stroke-linejoin="round"/>
<path d="M312.051 29.2658C312.051 29.2658 310.566 27.691 305.797 28.0746M305.019 55.0007C305.019 55.0007 307.632 61.0263 301.211 60.2519" stroke="black" stroke-width="2" stroke-linecap="round" stroke-linejoin="round"/>
<path d="M312.004 58.2214C312.004 58.2214 310.095 59.7467 305.378 58.9392M286.155 31.9659C286.155 31.9659 283.015 26.1965 289.481 26.3972M287.472 43.0914C287.472 43.0914 282.797 38.4778 281.201 44.7442" stroke="black" stroke-width="2" stroke-linecap="round" stroke-linejoin="round"/>
<path d="M279.134 29.0818C279.134 29.0818 280.678 27.6911 285.447 28.0748M285.926 55.0009C285.926 55.0009 283.312 61.0264 289.733 60.252" stroke="black" stroke-width="2" stroke-linecap="round" stroke-linejoin="round"/>
<path d="M278.94 58.2214C278.94 58.2214 280.849 59.7467 285.565 58.9392" stroke="black" stroke-width="2" stroke-linecap="round" stroke-linejoin="round"/>
<path d="M144.5 65.0312L141.781 62.5562C132.125 53.8 125.75 48.0062 125.75 40.9375C125.75 35.1437 130.287 30.625 136.062 30.625C139.325 30.625 142.456 32.1437 144.5 34.525C146.544 32.1437 149.675 30.625 152.937 30.625C158.712 30.625 163.25 35.1437 163.25 40.9375C163.25 48.0062 156.875 53.8 147.219 62.5562L144.5 65.0312Z" fill="#FF3C36"/>
</svg>
