<svg width="200" height="200" viewBox="0 0 200 200" fill="none" xmlns="http://www.w3.org/2000/svg">
<path d="M73.75 7.96094C71.6797 18.4492 75.5469 29.7344 87.0703 41.7578C91.4453 38.9102 99.4141 37.4844 106.602 38.5703C88.6328 29.8555 80.625 20.1602 73.75 7.96094ZM11.4023 10.3984C17.0156 28.5469 31.6758 50.3125 50.625 65.7422C36.5273 64.8437 19.5039 59.8047 7.32813 55.8594C17.0781 69.6094 32.3945 76.5234 47.6953 81.7578C37.9414 88.6719 26.168 95.7031 7.28906 96.875C28.6328 104.375 49.2969 100.352 58.5937 97.1484C51.6016 110.781 19.25 123.008 10.8164 127.227C31.6211 128.867 58.3594 122.93 76.0547 114.375C79.9609 123.984 75.4297 135.156 72.1094 144.766C71.3672 146.523 70.625 148.242 69.8828 149.961C71.875 148.594 73.8281 147.227 75.7031 145.82C84.9219 139.492 94.375 133.359 98.9453 122.852C109.141 135.039 123.437 147.109 140.742 156.211C147.539 164.844 151.797 175.352 154.102 185.039C157.344 177.578 159.492 169.336 157.891 161.484C167.461 160.078 171.797 149.883 171.758 140.234C166.836 142.656 165.859 142.695 159.57 143.438C159.57 139.492 159.805 138.555 158.398 132.227C154.375 135.508 150.195 136.602 146.367 136.836C147.188 133.867 147.539 129.219 147.812 126.172C142.734 128.945 140.312 129.961 136.055 130.391C135.898 126.133 136.016 122.578 134.453 118.516C122.891 125.937 115.469 119.102 107.891 110.195C115.625 103.555 145.547 101.68 145.039 112.969C150.508 110.117 152.383 108.594 154.258 106.758C157.812 110.078 159.492 114.922 160.156 119.023C163.789 115.352 164.18 114.922 166.836 109.727C169.063 113.672 170.273 116.367 171.016 121.68C174.336 119.258 177.031 116.563 178.75 113.32C181.68 119.375 181.992 119.57 183.594 126.211C190.547 121.094 192.109 114.023 192.5 107.617C193.281 94.7266 192.383 65.3516 180.391 51.7969C181.055 65.9766 175.273 79.1406 167.187 83.3203C162.266 85.2344 129.492 54.1797 113.437 46.875C104.258 42.8906 94.6484 49.6484 86.9531 50.5078C57.4219 41.4844 32.6445 27.7109 11.4023 10.3984ZM115.664 59.6875C120.859 67.8516 128.242 74.1016 139.141 81.1719C131.563 82.3047 113.437 78.5547 108.789 71.7969C106.641 68.7109 111.563 63.4766 115.664 59.6875ZM70.5469 124.648C64.9219 127.07 59.1406 128.906 53.4375 130.234C52.5 131.641 51.6406 133.008 50.8203 134.336C56.6016 136.406 63.125 137.07 68.0469 135.43C69.3359 131.602 70.1953 127.891 70.5469 124.648ZM43.9844 132.109L40 132.695C27.5742 146.992 15.8203 173.008 21.1562 192.031H35.2695C30.9258 177.305 28.8125 158.008 43.9844 132.109ZM47.3047 140.508C45 144.961 43.2422 149.141 41.9141 153.047C46.9531 155.664 53.2813 156.523 59.4141 156.25C61.2109 152.148 63.2422 147.734 65.1172 143.242C59.1016 143.945 52.8516 142.695 47.3047 140.508ZM90.8203 143.086C86.1328 147.187 80.9766 151.016 75.625 154.648C78.3594 167.93 88.6719 179.414 104.492 192.031H137.031C114.687 179.609 100.078 163.398 90.8203 143.086ZM40.0391 159.961C39.0625 164.57 38.75 168.828 38.8672 172.812C53.4375 178.359 63.2812 178.086 76.9531 174.414C74.1406 170.391 71.875 166.211 70.3516 161.797C57.5781 165.469 48.7109 164.023 40.0391 159.961ZM81.6797 180.43C66.7969 184.687 54.8047 185.586 39.6875 180.547C40.3906 184.609 41.4453 188.398 42.6172 192.031H93.4375C89.0234 188.203 85.0781 184.375 81.6797 180.43Z" fill="black"/>
</svg>

